<?xml version="1.0" encoding="iso-8859-1"?>
<!-- Generator: Adobe Illustrator 19.0.0, SVG Export Plug-In . SVG Version: 6.00 Build 0)  -->
<svg version="1.1" id="Layer_1" xmlns="http://www.w3.org/2000/svg" xmlns:xlink="http://www.w3.org/1999/xlink" x="0px" y="0px"
	 viewBox="0 0 512 512" style="enable-background:new 0 0 512 512;" xml:space="preserve">
<g>
	<path style="fill:#B853BF;" d="M427.035,193.676c-6.895-49.022-24.559-86.197-25.308-87.757
		c-4.458-9.278-15.184-13.721-24.893-10.311c-1.632,0.574-40.413,14.369-79.953,44.157c-5.066,3.816-8.045,9.79-8.045,16.13v148.818
		c0,11.153,9.042,20.196,20.196,20.196h98.004c11.153,0,20.196-9.042,20.196-20.196V196.489
		C427.232,195.547,427.166,194.608,427.035,193.676z"/>
	<path style="fill:#B853BF;" d="M215.119,139.766c-39.54-29.789-78.322-43.584-79.953-44.157
		c-9.711-3.409-20.435,1.031-24.893,10.311c-0.749,1.559-18.413,38.735-25.308,87.757c-0.132,0.93-0.197,1.871-0.197,2.813v108.225
		c0,11.153,9.042,20.196,20.196,20.196h98.004c11.153,0,20.196-9.042,20.196-20.196V155.897
		C223.164,149.557,220.186,143.581,215.119,139.766z"/>
</g>
<path style="fill:#BF6AC8;" d="M276.165,421.415c-0.615-11.137-10.167-19.667-21.278-19.051c-0.159,0.008-2.737,0.133-7.188,0.124
	l-64.72-156.254c3.451-1.426,6.551-3.805,8.844-7.093c6.379-9.15,4.133-21.739-5.017-28.118
	c-70.334-49.039-163.613-44.507-167.549-44.289c-10.278,0.568-18.486,8.776-19.053,19.053c-0.271,4.926-5.843,121.48,64.792,192.115
	c59.902,59.9,152.819,64.996,182.685,64.994c5.352,0,8.683-0.163,9.431-0.205C268.249,442.078,276.779,432.551,276.165,421.415z"/>
<g>
	<path style="fill:#CE8BD4;" d="M511.795,185.786c-0.567-10.278-8.776-18.486-19.053-19.053
		c-3.942-0.217-97.213-4.753-167.549,44.289c-9.15,6.379-11.396,18.968-5.017,28.118c2.293,3.288,5.395,5.668,8.843,7.093
		l-64.712,156.234c-4.459,0.02-7.042-0.097-7.196-0.105c-11.082-0.611-20.663,7.914-21.278,19.051
		c-0.614,11.136,7.917,20.664,19.053,21.277c0.75,0.042,4.075,0.205,9.431,0.205c29.873,0,122.786-5.099,182.684-64.994
		C517.637,307.266,512.066,190.713,511.795,185.786z"/>
	<path style="fill:#CE8BD4;" d="M269.471,74.256c-3.835-3.435-8.653-5.151-13.472-5.151c-4.819,0-9.637,1.717-13.472,5.151
		c-3.676,3.289-90.031,81.762-90.031,181.658c0,99.893,86.355,178.367,90.031,181.659c3.835,3.433,8.653,5.15,13.472,5.15
		c4.819,0,9.637-1.717,13.472-5.15c3.676-3.291,90.031-81.764,90.031-181.659C359.502,156.018,273.148,77.545,269.471,74.256z"/>
</g>
<path style="fill:#BF6AC8;" d="M269.471,74.256c-3.835-3.435-8.653-5.151-13.472-5.151v373.618c4.819,0,9.637-1.717,13.472-5.15
	c3.676-3.291,90.031-81.764,90.031-181.659C359.502,156.018,273.148,77.545,269.471,74.256z"/>
<g>
</g>
<g>
</g>
<g>
</g>
<g>
</g>
<g>
</g>
<g>
</g>
<g>
</g>
<g>
</g>
<g>
</g>
<g>
</g>
<g>
</g>
<g>
</g>
<g>
</g>
<g>
</g>
<g>
</g>
</svg>
